<svg width="125" height="41" viewBox="0 0 125 41" fill="none" xmlns="http://www.w3.org/2000/svg">
<g id="Frame">
<g id="Group">
<g id="Group_2">
<path id="Vector" d="M22 32C22 34.3869 20.8411 36.6761 18.7782 38.364C16.7153 40.0518 13.9174 41 11 41C8.08262 41 5.28473 40.0518 3.22183 38.364C1.15893 36.6761 0 34.3869 0 32C0 29.6131 1.15893 27.3239 3.22183 25.636C5.28473 23.9482 8.08262 23 11 23C13.9174 23 16.7153 23.9482 18.7782 25.636C20.8411 27.3239 22 29.6131 22 32ZM13.7415 25.2431C14.4354 26.2261 14.96 27.2923 15.3323 28.4H18.7C17.5619 26.905 15.81 25.7906 13.7585 25.2569L13.7415 25.2431ZM8.79999 28.4H13.2C12.7116 27.1098 11.9685 25.8937 11 24.8C10.0315 25.8937 9.28837 27.1098 8.79999 28.4ZM6.04155 33.8C5.85874 32.6046 5.85874 31.3954 6.04155 30.2H2.48769C2.12934 31.3821 2.12934 32.6179 2.48769 33.8H6.04155ZM8.24153 38.7431C7.55952 37.7529 7.03085 36.6971 6.6677 35.6H3.29999C4.43921 37.0942 6.19073 38.2083 8.24153 38.7431ZM8.24153 25.2431C6.1881 25.7814 4.43621 26.9006 3.29999 28.4H6.68461C7.03999 27.2923 7.56462 26.24 8.25847 25.2569L8.24153 25.2431ZM13.2 35.6H8.79999C9.30769 36.9015 10.0523 38.1062 11 39.2C11.9477 38.1062 12.6923 36.9015 13.2 35.6ZM13.7415 32C13.7415 31.3908 13.6739 30.7954 13.5723 30.2H8.42768C8.21543 31.3937 8.21543 32.6063 8.42768 33.8H13.5723C13.6739 33.2046 13.7415 32.6092 13.7415 32ZM18.7 35.6H15.3154C14.96 36.7077 14.4354 37.76 13.7415 38.7431C15.7972 38.209 17.5544 37.0952 18.7 35.6ZM19.5123 33.8C19.8812 32.619 19.8812 31.381 19.5123 30.2H15.9584C16.1413 31.3954 16.1413 32.6046 15.9584 33.8H19.5123Z" fill="white"/>
</g>
</g>
</g>
</svg>
